# xmcd
#
# Track frame offsets:
#	150
#	6697
#	26272
#	30677
#	79932
#	108097
#	153955
#	170440
#	190680
#	229760
#
# Disc length: 3603 seconds
# Revision: 4
# Processed by: cddbd v1.5.2PL0 Copyright (c) Steve Scherf et al.
# Submitted via: dBpowerAMP V12.0
#
DISCID=6d0e110a
DTITLE=Al Kooper and Mike Bloomfield - Fillmore East: The Lost Concert Tapes 12-13-68
DYEAR=1968
DGENRE=Blues
TTITLE0=(01) Introductions
TTITLE1=(02) One Way Out
TTITLE2=(03) Bloomfield's Introduction of Johnny Winter
TTITLE3=(04) It's My Own Fault (Feat. Johnny Winter)
TTITLE4=(05) 59th Street Bridge Song (Feelin' Groovy)
TTITLE5=(06) (Please) Tell Me Partner
TTITLE6=(07) That's All Right Mama
TTITLE7=(08) Together Till The End Of Time
TTITLE8=(09) Don't Throw Your Love On Me So Strong
TTITLE9=(10) Season Of The Witch
EXTD=
EXTT0=
EXTT1=
EXTT2=
EXTT3=
EXTT4=
EXTT5=
EXTT6=
EXTT7=
EXTT8=
EXTT9=
PLAYORDER=
